<svg width="43" height="31" viewBox="0 0 43 31" fill="none" xmlns="http://www.w3.org/2000/svg">
<path d="M1 1H4.97613C5.80792 1 6.58052 1.43029 7.01847 2.13745L15.8676 16.4266M15.8676 16.4266L14.191 19.2641C13.8945 19.7659 13.894 20.3892 14.1897 20.8914L15.5223 23.1545C15.954 23.8878 16.7414 24.3379 17.5923 24.3379H34.8777M15.8676 16.4266H32.5237C33.368 16.4266 34.1503 15.9834 34.5843 15.2592L41.2734 4.09765C41.5933 3.56392 41.2088 2.88526 40.5866 2.88526H13.7104" stroke="#837DFF" stroke-width="1.60151" stroke-linecap="round"/>
<path d="M36.8442 26.5996C36.9873 26.8474 36.9873 27.1526 36.8442 27.4004L35.7688 29.263C35.6258 29.5107 35.3615 29.6633 35.0754 29.6633H32.9246C32.6385 29.6633 32.3742 29.5107 32.2312 29.263L31.1558 27.4004C31.0127 27.1526 31.0127 26.8474 31.1558 26.5996L32.2312 24.737C32.3742 24.4893 32.6385 24.3367 32.9246 24.3367H35.0754C35.3615 24.3367 35.6258 24.4893 35.7688 24.737L36.8442 26.5996Z" stroke="#837DFF" stroke-width="1.60151"/>
<path d="M18.8442 26.5996C18.9873 26.8474 18.9873 27.1526 18.8442 27.4004L17.7688 29.263C17.6258 29.5107 17.3615 29.6633 17.0754 29.6633H14.9246C14.6385 29.6633 14.3742 29.5107 14.2312 29.263L13.1558 27.4004C13.0127 27.1526 13.0127 26.8474 13.1558 26.5996L14.2312 24.737C14.3742 24.4893 14.6385 24.3367 14.9246 24.3367H17.0754C17.3615 24.3367 17.6258 24.4893 17.7688 24.737L18.8442 26.5996Z" stroke="#837DFF" stroke-width="1.60151"/>
</svg>
