<svg width="46" height="31" viewBox="0 0 46 31" fill="none" xmlns="http://www.w3.org/2000/svg">
<path d="M28.9566 24.4646H42.6383C43.5228 24.4646 44.2399 23.7476 44.2399 22.8631V2.59782C44.2399 1.71333 43.5228 0.996315 42.6383 0.996315L5.68159 0.996315C4.7971 0.996315 4.08008 1.71334 4.08008 2.59782L4.08008 11.4063M9.62537 29.8232H36.8522H27.353C25.5781 29.8232 24.1417 28.3801 24.15 26.6053L24.1525 26.0736C24.1566 25.1862 23.4384 24.4646 22.551 24.4646H12.61" stroke="#837DFF" stroke-width="1.60151" stroke-linecap="round"/>
<path d="M5.54883 26.0778C5.54883 25.4 6.10433 24.8506 6.78958 24.8506C7.47482 24.8506 8.03033 25.4 8.03033 26.0778V26.1097C8.03033 26.7874 7.47482 27.3369 6.78958 27.3369C6.10433 27.3369 5.54883 26.7874 5.54883 26.1097V26.0778Z" fill="#837DFF"/>
<path d="M0.199246 23.2137C0.199246 23.656 0.557756 24.0145 1 24.0145C1.44224 24.0145 1.80075 23.656 1.80075 23.2137H0.199246ZM1.80075 26.9315C1.80075 26.4893 1.44224 26.1308 1 26.1308C0.557756 26.1308 0.199246 26.4893 0.199246 26.9315H1.80075ZM3.40226 12.3911H10.1781V10.7896H3.40226V12.3911ZM11.7796 13.9926V27.4209H13.3811V13.9926H11.7796ZM10.1781 29.0224H3.40226V30.6239H10.1781V29.0224ZM1.80075 23.2137V13.9926H0.199246V23.2137H1.80075ZM1.80075 27.4209V26.9315H0.199246V27.4209H1.80075ZM3.40226 29.0224C2.51777 29.0224 1.80075 28.3054 1.80075 27.4209H0.199246C0.199246 29.1899 1.63329 30.6239 3.40226 30.6239V29.0224ZM11.7796 27.4209C11.7796 28.3054 11.0626 29.0224 10.1781 29.0224V30.6239C11.947 30.6239 13.3811 29.1899 13.3811 27.4209H11.7796ZM10.1781 12.3911C11.0626 12.3911 11.7796 13.1081 11.7796 13.9926H13.3811C13.3811 12.2236 11.947 10.7896 10.1781 10.7896V12.3911ZM3.40226 10.7896C1.63328 10.7896 0.199246 12.2236 0.199246 13.9926H1.80075C1.80075 13.1081 2.51777 12.3911 3.40226 12.3911V10.7896Z" fill="#837DFF"/>
</svg>
