<svg width="37" height="44" viewBox="0 0 37 44" fill="none" xmlns="http://www.w3.org/2000/svg">
<path d="M21 5V4" stroke="#837DFF" stroke-width="1.60151" stroke-linecap="round" stroke-linejoin="round"/>
<path d="M25 4V1" stroke="#837DFF" stroke-width="1.60151" stroke-linecap="round" stroke-linejoin="round"/>
<path d="M21 10C21 11.6569 22.567 13 24.5 13C26.433 13 28 11.6569 28 10C28 8.34315 26.433 7 24.5 7C22.567 7 21 8.34315 21 10Z" stroke="#837DFF" stroke-width="1.60151" stroke-linecap="round" stroke-linejoin="round"/>
<path d="M26 20.7978C26.9624 19.1158 28.6528 18 30.5774 18C33.5722 18 36 20.7019 36 24.035C36 27.0546 34.0072 29.5563 31.4054 30" stroke="#837DFF" stroke-width="1.60151" stroke-linecap="round" stroke-linejoin="round"/>
<path d="M36 17V4" stroke="#837DFF" stroke-width="1.60151" stroke-linecap="round" stroke-linejoin="round"/>
<path d="M33 15V11" stroke="#837DFF" stroke-width="1.60151" stroke-linecap="round" stroke-linejoin="round"/>
<path d="M1 31.4779V40.5977C1 41.9245 2.07553 43 3.40226 43H25.5977C26.9245 43 28 41.9245 28 40.5977V26.4834C28 25.1567 26.9245 24.0812 25.5977 24.0812H10.45M10.45 24.0812H1L6.74777 20.3824C8.34645 19.3537 10.45 20.5015 10.45 22.4025V24.0812Z" stroke="#837DFF" stroke-width="1.60151" stroke-linecap="round" stroke-linejoin="round"/>
<path d="M14 17.5C14 19.433 15.567 21 17.5 21C19.433 21 21 19.433 21 17.5C21 15.567 19.433 14 17.5 14C15.567 14 14 15.567 14 17.5Z" stroke="#837DFF" stroke-width="1.60151" stroke-linecap="round" stroke-linejoin="round"/>
<path d="M25 33.5C25 34.3284 24.3284 35 23.5 35C22.6716 35 22 34.3284 22 33.5C22 32.6716 22.6716 32 23.5 32C24.3284 32 25 32.6716 25 33.5Z" fill="#837DFF"/>
</svg>
