<svg width="28" height="37" viewBox="0 0 28 37" fill="none" xmlns="http://www.w3.org/2000/svg">
<path d="M13.7306 36L1.65671 23.2301C1.23498 22.7841 1 22.1935 1 21.5797V9.7634C1 8.8893 1.47479 8.08418 2.23972 7.66117L13.1196 1.64449C13.8446 1.24357 14.725 1.2445 15.4491 1.64693L25.7647 7.37978C26.5272 7.80352 27 8.60727 27 9.47956V21.5781C27 22.1929 26.7643 22.7843 26.3414 23.2305L18.3904 31.6208" stroke="#837DFF" stroke-width="1.60151" stroke-linecap="round" stroke-linejoin="round"/>
<path d="M13.1992 9.38695C13.6948 9.10086 14.3052 9.10086 14.8008 9.38695L18.4607 11.5C18.9562 11.7861 19.2614 12.3148 19.2614 12.8869V17.1131C19.2614 17.6852 18.9562 18.2139 18.4607 18.5L14.8008 20.6131C14.3052 20.8991 13.6948 20.8991 13.1992 20.6131L9.53933 18.5C9.04382 18.2139 8.73858 17.6852 8.73858 17.1131V12.8869C8.73858 12.3148 9.04382 11.7861 9.53933 11.5L13.1992 9.38695Z" stroke="#837DFF" stroke-width="1.60151" stroke-linecap="round" stroke-linejoin="round"/>
</svg>
