<svg width="542" height="318" viewBox="0 0 542 318" fill="none" xmlns="http://www.w3.org/2000/svg">
<path d="M309.909 32.1538L309.891 36.2693L324.316 5.11676L324.335 1.00098L309.909 32.1538Z" fill="#062980"/>
<path d="M307.528 41.3933L307.51 45.5088C307.715 42.0899 308.361 38.9272 309.703 35.5774L309.722 31.4609C308.379 34.8118 307.478 38.4168 307.528 41.3933Z" fill="#062A85"/>
<path d="M307.534 41.3896L307.516 45.5051C307.853 55.1313 314.132 64.6573 326.05 71.5491L326.068 67.4337C314.15 60.5418 307.871 51.0158 307.534 41.3896Z" fill="#852064"/>
<path d="M326.065 67.4365L326.047 71.553L424.224 128.917L424.242 124.801L326.065 67.4365Z" fill="#801F60"/>
<path d="M540.874 125.632L540.855 129.749C541.365 128.864 541.178 128.167 541.247 127.028L541.265 122.911C541.638 124.306 541.129 125.19 540.874 125.632Z" fill="#852064"/>
<path d="M485.772 134.443L485.754 138.559L540.856 129.749L540.875 125.634L485.772 134.443Z" fill="#801F60"/>
<path d="M424.241 124.801L424.223 128.916C443.271 138.753 464.749 142.331 485.755 138.561L485.773 134.446C464.768 138.215 443.289 134.637 424.241 124.801Z" fill="#852064"/>
<path d="M1.0806 190.16L1.0625 194.276C1.604 200.483 5.1852 205.501 10.7367 208.122L10.7547 204.007C5.2032 201.386 1.6221 196.367 1.0806 190.16Z" fill="#AAC4FF"/>
<path d="M1.0806 190.16L1.0625 194.276C1.604 200.483 5.1852 205.501 10.7367 208.122L10.7547 204.007C5.2032 201.386 1.6221 196.367 1.0806 190.16Z" fill="#AAC4FF"/>
<path d="M531.466 137.878L531.447 141.994C536.389 139.546 540.075 135.193 541.3 130.007L541.318 125.891C539.652 130.823 536.408 135.431 531.466 137.878Z" fill="#AAC4FF"/>
<path d="M531.466 137.878L531.447 141.994C536.389 139.546 540.075 135.193 541.3 130.007L541.318 125.891C539.652 130.823 536.408 135.431 531.466 137.878Z" fill="#AAC4FF"/>
<path d="M10.7505 204.006L10.7324 208.121L189.685 312.196L189.703 308.08L10.7505 204.006Z" fill="#AAC4FF"/>
<path d="M236.742 308.162L236.723 312.277L531.449 141.992L531.467 137.876L236.742 308.162Z" fill="#AAC4FF"/>
<path d="M189.704 308.08L189.686 312.197C204.321 319.48 221.895 319.622 236.721 312.28L236.739 308.163C221.913 315.506 204.78 315.619 189.704 308.08Z" fill="#AAC4FF"/>
<path d="M189.704 308.08L189.686 312.197C204.321 319.48 221.895 319.622 236.721 312.28L236.739 308.163C221.913 315.506 204.339 315.364 189.704 308.08Z" fill="#AAC4FF"/>
<path d="M531.461 137.875C536.403 135.428 540.089 131.076 541.314 125.888L485.769 134.442C464.764 138.212 443.285 134.634 424.237 124.797L326.06 67.4338C310.169 58.2451 303.908 44.6025 309.72 31.4574L324.145 0.304688C317.506 0.59173 310.985 2.71563 305.092 5.79213L10.3671 176.079C-2.62486 183.303 -2.67956 195.65 10.5623 203.308L189.516 307.382C204.15 314.666 221.725 314.808 236.55 307.465L531.461 137.875Z" fill="url(#paint0_linear)"/>
<path d="M532.154 111.162L350.994 5.81008L350.552 5.55477C344.237 2.13418 333.795 0.69166 325.474 0.331055H324.794H324.074L308.263 32.9744C302.011 45.8633 308.272 59.5059 324.604 68.9499L422.781 126.313C441.829 136.151 462.866 139.473 483.872 135.704L541.361 125.899C541.361 125.899 541.447 124.125 541.383 123.633C540.822 118.317 536.602 113.734 532.154 111.162Z" fill="url(#paint1_linear)"/>
<path d="M276.487 170.56L277.351 170.412L276.477 170.577L276.487 170.56ZM277.353 170.436L277.26 170.461L275.033 170.811L274.487 170.893L271.918 171.295L261.243 173.003C257.286 173.625 253.061 172.954 250.146 171.267L233.581 161.625C230.7 159.96 229.591 157.493 230.651 155.18L236.812 142.006C237.485 140.743 238.522 139.712 239.788 139.045C241.383 138.167 243.124 137.588 244.926 137.335L247.501 136.92L258.652 135.145L258.731 135.129L264.075 134.278C265.662 134.026 267.159 134.861 266.71 135.802L265.019 139.505C264.858 139.812 264.608 140.062 264.302 140.222C263.992 140.396 263.657 140.52 263.309 140.592C263.262 140.607 263.215 140.624 263.17 140.644L263.15 140.625C262.951 140.686 262.748 140.737 262.543 140.774L252.873 142.306L251.375 142.539C250.099 142.77 248.868 143.204 247.728 143.825C246.994 144.215 246.37 144.786 245.915 145.484L241.581 154.774C240.9 156.253 241.621 157.825 243.462 158.89L254.986 165.601C257.166 166.739 259.66 167.129 262.083 166.708L277.969 164.191L276.127 168.494C275.75 169.33 275.11 170.017 274.305 170.453C273.713 170.785 273.08 171.037 272.422 171.205L272.502 171.188L274.501 170.87C275.463 170.71 276.393 170.391 277.25 169.924C278.085 169.474 278.743 168.755 279.12 167.884L283.393 157.794L288.712 145.404C288.834 145.138 289.042 144.92 289.302 144.786C289.774 144.544 290.297 144.416 290.827 144.414C291.358 144.412 291.881 144.535 292.356 144.773L295.95 146.727C297.56 147.595 298.23 148.825 297.745 150.058L295.553 155.564L295.452 155.739L294.9 157.129L294.196 158.906L292.295 163.339C292.093 163.79 291.86 164.226 291.597 164.644C290.877 165.919 289.809 166.961 288.518 167.647C286.939 168.52 285.22 169.109 283.439 169.391L277.349 170.403L277.353 170.436ZM222.485 129.547C199.504 142.832 199.378 164.364 222.214 177.656C245.05 190.948 282.153 190.947 305.138 177.656C328.122 164.363 328.236 142.84 305.406 129.552C282.576 116.264 245.46 116.258 222.485 129.547Z" fill="white" fill-opacity="0.71"/>
<path d="M275.084 170.816L276.527 170.582L275.084 170.816Z" fill="white" fill-opacity="0.71"/>
<defs>
<linearGradient id="paint0_linear" x1="261.25" y1="429.452" x2="288.551" y2="-317.121" gradientUnits="userSpaceOnUse">
<stop stop-color="#7415FF" stop-opacity="0.5"/>
<stop offset="0.0774334" stop-color="#6E1EFC" stop-opacity="0.5682"/>
<stop offset="0.2062" stop-color="#5E38F5" stop-opacity="0.6817"/>
<stop offset="0.3704" stop-color="#4361E8" stop-opacity="0.8264"/>
<stop offset="1" stop-color="#5D88FC"/>
</linearGradient>
<linearGradient id="paint1_linear" x1="528.611" y1="148.019" x2="310.349" y2="22.208" gradientUnits="userSpaceOnUse">
<stop stop-color="#FE9101"/>
<stop offset="1" stop-color="#FF5879"/>
</linearGradient>
</defs>
</svg>
