<svg width="541" height="318" viewBox="0 0 541 318" fill="none" xmlns="http://www.w3.org/2000/svg">
<path d="M0.453648 189.855L0.435547 193.971C0.977047 200.178 4.55825 205.196 10.1097 207.818L10.1277 203.702C4.57625 201.081 0.995148 196.063 0.453648 189.855Z" fill="#AAC4FF"/>
<path d="M0.453648 189.855L0.435547 193.971C0.977047 200.178 4.55825 205.196 10.1097 207.818L10.1277 203.702C4.57625 201.081 0.995148 196.063 0.453648 189.855Z" fill="#AAC4FF"/>
<path d="M530.839 137.573L530.82 141.69C535.762 139.241 539.448 134.889 540.673 129.702L540.691 125.586C539.025 130.518 535.781 135.126 530.839 137.573Z" fill="#AAC4FF"/>
<path d="M530.839 137.573L530.82 141.69C535.762 139.241 539.448 134.889 540.673 129.702L540.691 125.586C539.025 130.518 535.781 135.126 530.839 137.573Z" fill="#AAC4FF"/>
<path d="M10.1236 203.701L10.1055 207.817L189.058 311.892L189.076 307.775L10.1236 203.701Z" fill="#AAC4FF"/>
<path d="M236.115 307.857L236.096 311.973L530.822 141.688L530.84 137.571L236.115 307.857Z" fill="#AAC4FF"/>
<path d="M189.077 307.775L189.059 311.892C203.694 319.175 221.268 319.317 236.094 311.975L236.112 307.858C221.286 315.202 204.153 315.315 189.077 307.775Z" fill="#AAC4FF"/>
<path d="M189.077 307.775L189.059 311.892C203.694 319.175 221.268 319.317 236.094 311.975L236.112 307.858C221.286 315.202 203.712 315.06 189.077 307.775Z" fill="#AAC4FF"/>
<path d="M530.834 137.571C535.776 135.124 539.462 130.771 540.687 125.584L485.142 134.138C464.137 137.907 442.658 134.329 423.61 124.493L325.433 67.1291C309.542 57.9404 303.281 44.2978 309.093 31.1527L323.518 0C316.879 0.287043 310.358 2.41094 304.465 5.48744L9.74018 175.774C-3.25182 182.998 -3.30652 195.346 9.93538 203.003L188.889 307.077C203.523 314.361 221.098 314.503 235.923 307.16L530.834 137.571Z" fill="url(#paint0_linear)"/>
<path d="M531.527 110.857L350.367 5.50539L349.925 5.25008C343.61 1.82949 333.168 0.386972 324.847 0.0263672H324.167H323.447L307.636 32.6698C301.384 45.5587 307.645 59.2012 323.977 68.6452L422.154 126.009C441.202 135.846 462.239 139.169 483.245 135.4L540.734 125.594C540.734 125.594 540.82 123.821 540.756 123.328C540.195 118.012 535.975 113.429 531.527 110.857Z" fill="url(#paint1_linear)"/>
<path d="M274.457 170.511L275.9 170.277L274.457 170.511Z" fill="white" fill-opacity="0.71"/>
<defs>
<linearGradient id="paint0_linear" x1="260.623" y1="429.147" x2="287.924" y2="-317.425" gradientUnits="userSpaceOnUse">
<stop stop-color="#7415FF" stop-opacity="0.5"/>
<stop offset="0.0774334" stop-color="#6E1EFC" stop-opacity="0.5682"/>
<stop offset="0.2062" stop-color="#5E38F5" stop-opacity="0.6817"/>
<stop offset="0.3704" stop-color="#4361E8" stop-opacity="0.8264"/>
<stop offset="1" stop-color="#5D88FC"/>
</linearGradient>
<linearGradient id="paint1_linear" x1="527.984" y1="147.714" x2="309.722" y2="21.9033" gradientUnits="userSpaceOnUse">
<stop stop-color="#FE9101"/>
<stop offset="1" stop-color="#FF5879"/>
</linearGradient>
</defs>
</svg>
