<svg width="744" height="561" viewBox="0 0 744 561" fill="none" xmlns="http://www.w3.org/2000/svg">
<path fill-rule="evenodd" clip-rule="evenodd" d="M646.078 8.75683C626.556 -2.54134 602.484 -2.54134 582.963 8.75683L553.34 25.9009C551.541 26.723 549.772 27.6342 548.038 28.6344L481.557 66.9825C479.49 68.1747 477.507 69.4743 475.613 70.8718C474.602 71.3829 473.6 71.9229 472.611 72.4919L405.697 110.961C404.065 111.899 402.485 112.904 400.96 113.972C399.972 114.474 398.993 115.004 398.026 115.562L331.545 153.911C330.936 154.262 330.334 154.623 329.74 154.992L328.461 155.73C326.615 156.568 324.798 157.5 323.02 158.526L256.539 196.874C255.412 197.524 254.31 198.206 253.234 198.919C250.773 199.946 248.361 201.136 246.014 202.49L179.533 240.838C176.715 242.464 174.053 244.288 171.562 246.289L106.527 283.803C103.949 285.29 101.501 286.945 99.1946 288.748C98.7954 288.967 98.398 289.19 98.0024 289.418L31.5214 327.766C12.0171 339.017 0 359.822 0 382.338V458.936C0 481.452 12.0171 502.257 31.5214 513.508L98.0024 551.856C117.484 563.093 141.478 563.093 160.96 551.856L227.441 513.508C230.019 512.02 232.467 510.366 234.773 508.563C235.173 508.344 235.57 508.12 235.965 507.892L302.446 469.544C305.264 467.918 307.926 466.094 310.418 464.093L374.479 427.141C378.432 425.819 382.286 424.093 385.977 421.963L414.046 405.773C415.891 404.935 417.705 404.003 419.481 402.979L486.395 364.381C489.509 362.585 492.432 360.545 495.146 358.294L527.464 339.652C528.678 338.951 529.864 338.214 531.019 337.441C532.505 336.736 533.97 335.969 535.41 335.141L602.324 296.672C604.776 295.262 607.11 293.702 609.317 292.006C609.88 291.704 610.439 291.392 610.995 291.072L635.848 276.736C639.358 275.472 642.783 273.887 646.078 271.98L712.559 233.504C732.018 222.242 744.001 201.462 744.001 178.978V101.76C744.001 79.2755 732.018 58.4957 712.559 47.2332L646.078 8.75683Z" fill="url(#paint0_linear)"/>
<defs>
<linearGradient id="paint0_linear" x1="695.116" y1="0.283214" x2="-411.728" y2="730.973" gradientUnits="userSpaceOnUse">
<stop stop-color="#FFAA25"/>
<stop offset="1" stop-color="#FF5879"/>
</linearGradient>
</defs>
</svg>
